<?xml version="1.0" encoding="UTF-8"?>
<svg version="1.1" xmlns="http://www.w3.org/2000/svg" width="430" height="445">
<path d="M0 0 C3.94997665 -0.00556552 7.8996226 -0.02985139 11.84949398 -0.05797195 C14.94235694 -0.07666002 18.03513903 -0.08180631 21.12805367 -0.08333588 C22.5851283 -0.08632818 24.04220273 -0.09423808 25.49921989 -0.10752106 C37.52291832 -0.20970723 47.68585736 0.68043497 56.75610352 9.24023438 C67.37401724 20.0120309 71.03867838 38.60641749 75.75610352 52.61523438 C76.41671394 54.56663698 77.07777453 56.51788724 77.73925781 58.46899414 C79.09328445 62.46366381 80.44555591 66.45892096 81.79663086 70.45458984 C84.42289408 78.21589852 87.07539195 85.96819501 89.72802734 93.72052002 C95.03900739 109.24584283 100.32068035 124.78107768 105.59475708 140.31896973 C108.6278851 149.25440307 111.66258878 158.18930145 114.69763184 167.12408447 C115.38513616 169.14810322 116.07255942 171.17214949 116.7598877 173.19622803 C118.88060401 179.44109433 121.00382071 185.6851017 123.13110352 191.92773438 C123.41399231 192.75805176 123.6968811 193.58836914 123.98834229 194.44384766 C127.95365815 206.07247379 132.01431572 217.66446912 136.13110352 229.24023438 C139.70889424 239.30175996 143.18479614 249.38225875 146.44360352 259.55273438 C146.77086426 260.57302734 147.098125 261.59332031 147.43530273 262.64453125 C150.33218176 271.81719129 152.33638831 279.863298 148.75610352 289.24023438 C143.28245839 297.45070206 135.32105231 302.28361737 125.75610352 304.24023438 C122.86266792 304.67380613 119.96488258 304.96429264 117.05200195 305.23339844 C115.80632195 305.35569824 115.80632195 305.35569824 114.53547668 305.48046875 C111.81274383 305.74567174 109.08924147 306.0014681 106.36547852 306.25585938 C104.45508933 306.43705779 102.54470944 306.61835419 100.63433838 306.79974365 C96.63709706 307.17744445 92.63938912 307.54971056 88.64135742 307.91894531 C83.54518455 308.39063839 78.45115158 308.88227852 73.35735703 309.37891006 C69.4135222 309.76002808 65.46846739 310.12709026 61.52295685 310.49040985 C59.64561578 310.66557438 57.76873484 310.84575201 55.89238739 311.03125763 C41.99908986 312.3970857 29.90681461 313.27934121 17.75610352 305.24023438 C17.75610352 304.58023437 17.75610352 303.92023438 17.75610352 303.24023438 C16.76610352 302.91023438 15.77610352 302.58023437 14.75610352 302.24023438 C3.13799145 289.3661102 -0.24465142 267.16222887 -5.46081543 250.85797119 C-6.54579567 247.46949598 -7.63529336 244.08247436 -8.72436523 240.6953125 C-10.63395652 234.7539494 -12.53931142 228.81124011 -14.4419651 222.86765194 C-15.78874511 218.6606361 -17.13758027 214.4542847 -18.48754883 210.24829102 C-22.085462 199.03254593 -25.63987845 187.80589175 -29.11889648 176.55273438 C-32.6466909 165.17698229 -36.33760095 153.86488982 -40.13787842 142.57751465 C-42.88487962 134.41155134 -45.5055965 126.23027545 -47.92993164 117.96337891 C-50.11547892 110.5558866 -52.48449978 103.21074239 -54.86889648 95.86523438 C-59.3941677 81.92315295 -63.82425055 67.95237781 -68.22094727 53.96923828 C-68.4650383 53.19385712 -68.70912933 52.41847595 -68.96061707 51.61959839 C-69.43171791 50.12271684 -69.90204777 48.62559238 -70.37153625 47.12820435 C-71.5410345 43.41107341 -72.76230394 39.7203142 -74.05639648 36.04492188 C-76.04676507 29.66788567 -76.77969064 22.96439456 -74.17749023 16.65429688 C-69.97727248 9.94768215 -63.91077708 3.64099346 -56.24389648 1.24023438 C-52.72846233 0.83632207 -49.21297628 0.73518721 -45.67749023 0.63085938 C-44.05187416 0.57517792 -44.05187416 0.57517792 -42.39341736 0.51837158 C-28.26618296 0.0822589 -14.13290906 0.01707101 0 0 Z " fill="#000102" transform="translate(186.243896484375,69.759765625)"/>
<path d="M0 0 C-0.59425781 0.01981934 -1.18851563 0.03963867 -1.80078125 0.06005859 C-4.53424419 0.15623993 -7.26703803 0.26553557 -10 0.375 C-11.40185547 0.42140625 -11.40185547 0.42140625 -12.83203125 0.46875 C-20.77469073 0.80200844 -28.01328735 1.19470289 -34 7 C-37.37625938 13.75251877 -35.29472916 22.89588101 -33.05541992 29.75610352 C-31.98093736 32.83298644 -30.87461129 35.89674808 -29.74316406 38.953125 C-28.7717554 41.62864742 -27.93877116 44.33526693 -27.125 47.0625 C-22.08315622 63.64041431 -16.6803794 80.10676966 -11.14575195 96.52587891 C-9.41329328 101.68165691 -7.72576288 106.84377599 -6.140625 112.046875 C-3.38833069 121.07234355 -0.43050832 130.03121987 2.5 139 C5.79775556 149.09273522 9.08772074 159.18244639 12.18164062 169.33984375 C13.23012054 172.74802907 14.35382506 176.12343057 15.5 179.5 C17.42186031 185.20073288 19.2194293 190.93167059 20.96875 196.6875 C22.45262353 201.45388165 24.05175286 206.17948816 25.65625 210.90625 C27.09156111 215.21657769 28.41032376 219.56144554 29.74169922 223.90478516 C32.23948131 232.04344961 34.76961401 240.17177061 37.32592773 248.29223633 C37.98265162 250.38591953 38.63501145 252.48097668 39.28295898 254.57739258 C45.26565321 277.58649323 45.26565321 277.58649323 60 295 C65.63551265 297.75234998 70.65295119 298.43636625 76.86694336 298.27661133 C77.69136146 298.26538396 78.51577955 298.25415659 79.36518002 298.242589 C87.98587812 298.07495895 96.54833469 297.38126916 105.12890625 296.57421875 C106.78169219 296.42401203 108.4345202 296.27426762 110.08738708 296.12495422 C113.51038998 295.8136916 116.93273702 295.4961745 120.35473633 295.17407227 C124.71390062 294.764386 129.07443221 294.37205458 133.43560886 293.98445415 C136.83284953 293.68037974 140.22913693 293.36654996 143.62522697 293.04990578 C145.23271171 292.90129381 146.84048499 292.7557656 148.44854927 292.61356163 C161.05732185 291.74543286 161.05732185 291.74543286 173 288 C174.70198927 285.62529562 174.70198927 285.62529562 175 283 C175.33 282.01 175.66 281.02 176 280 C177.49159423 266.23143789 170.36144408 251.91841253 165.75 239.25 C162.57392952 230.47922367 159.51409822 221.68199611 156.59692383 212.82202148 C154.44432428 206.2947241 152.20736428 199.79989434 149.9375 193.3125 C147.59686119 186.6196492 145.28608606 179.92017495 143.0625 173.1875 C140.61169688 165.7670364 138.06516052 158.38166155 135.5 151 C132.95663313 143.68053963 130.42980057 136.35799172 128 129 C125.61137423 121.76707353 123.12681845 114.56950378 120.625 107.375 C117.7646414 99.14054425 114.93788843 90.89686636 112.1875 82.625 C111.87256592 81.67850586 111.55763184 80.73201172 111.2331543 79.75683594 C109.68121121 75.08469441 108.13461066 70.41082572 106.59570312 65.734375 C98.03745479 30.36778554 98.03745479 30.36778554 76.8125 4 C71.81818298 1.73486094 67.74947874 0.87400813 62.25683594 0.90234375 C61.10173523 0.90564697 59.94663452 0.9089502 58.75653076 0.91235352 C57.51171936 0.92065186 56.26690796 0.9289502 54.984375 0.9375 C53.02080951 0.94328651 51.05724398 0.94906723 49.09367752 0.95451355 C44.95120187 0.96764009 40.80876458 0.98974809 36.6663208 1.01037598 C33.26161985 1.0270004 29.8569386 1.04160215 26.45220947 1.05102539 C23.90120658 1.05852072 21.35021185 1.0705296 18.79925537 1.08764648 C12.76374447 1.10471977 6.96541432 0.93850433 1 0 C1.33 -0.66 1.66 -1.32 2 -2 C10.30220797 -2.06982278 18.60429116 -2.12297378 26.90672112 -2.15543652 C30.76279014 -2.17102498 34.61865678 -2.19213675 38.47460938 -2.22631836 C42.20289191 -2.25915757 45.93098101 -2.27690416 49.65939713 -2.28463173 C51.07461716 -2.29013155 52.48982783 -2.30087012 53.90496445 -2.31719017 C65.95942008 -2.45055084 75.94698773 -1.54353539 85 7 C95.61791372 17.77179653 99.28257486 36.36618312 104 50.375 C104.66061042 52.32640261 105.32167101 54.27765287 105.9831543 56.22875977 C107.33718093 60.22342943 108.6894524 64.21868659 110.04052734 68.21435547 C112.66679056 75.97566414 115.31928843 83.72796063 117.97192383 91.48028564 C123.28290388 107.00560846 128.56457683 122.5408433 133.83865356 138.07873535 C136.87178158 147.01416869 139.90648526 155.94906707 142.94152832 164.8838501 C143.62903264 166.90786884 144.31645591 168.93191512 145.00378418 170.95599365 C147.1245005 177.20085995 149.24771719 183.44486732 151.375 189.6875 C151.65788879 190.51781738 151.94077759 191.34813477 152.23223877 192.20361328 C156.19755463 203.83223941 160.25821221 215.42423475 164.375 227 C167.95279073 237.06152559 171.42869262 247.14202438 174.6875 257.3125 C175.01476074 258.33279297 175.34202148 259.35308594 175.67919922 260.40429688 C178.57607824 269.57695691 180.5802848 277.62306362 177 287 C171.52635488 295.21046769 163.56494879 300.04338299 154 302 C151.10656441 302.43357175 148.20877906 302.72405827 145.29589844 302.99316406 C144.05021843 303.11546387 144.05021843 303.11546387 142.77937317 303.24023438 C140.05664031 303.50543736 137.33313796 303.76123372 134.609375 304.015625 C132.69898581 304.19682342 130.78860592 304.37811982 128.87823486 304.55950928 C124.88099354 304.93721007 120.88328561 305.30947618 116.88525391 305.67871094 C111.78908104 306.15040402 106.69504807 306.64204415 101.60125351 307.13867569 C97.65741868 307.51979371 93.71236388 307.88685588 89.76685333 308.25017548 C87.88951227 308.42534001 86.01263132 308.60551763 84.13628387 308.79102325 C70.24298635 310.15685132 58.15071109 311.03910683 46 303 C46 302.34 46 301.68 46 301 C45.01 300.67 44.02 300.34 43 300 C31.38188794 287.12587582 27.99924506 264.9219945 22.78308105 248.61773682 C21.69810081 245.22926161 20.60860312 241.84223999 19.51953125 238.45507812 C17.60993997 232.51371503 15.70458506 226.57100574 13.80193138 220.62741756 C12.45515137 216.42040172 11.10631621 212.21405033 9.75634766 208.00805664 C6.15843449 196.79231155 2.60401803 185.56565737 -0.875 174.3125 C-4.40279441 162.93674791 -8.09370446 151.62465544 -11.89398193 140.33728027 C-14.64098313 132.17131696 -17.26170002 123.99004108 -19.68603516 115.72314453 C-21.87158243 108.31565222 -24.2406033 100.97050802 -26.625 93.625 C-31.15027122 79.68291858 -35.58035406 65.71214343 -39.97705078 51.72900391 C-40.22114182 50.95362274 -40.46523285 50.17824158 -40.71672058 49.37936401 C-41.18782143 47.88248246 -41.65815128 46.38535801 -42.12763977 44.88796997 C-43.29713802 41.17083904 -44.51840746 37.48007983 -45.8125 33.8046875 C-47.80286859 27.42765129 -48.53579415 20.72416018 -45.93359375 14.4140625 C-41.65719844 7.58581276 -35.68567446 1.64364183 -28 -1 C-23.80822264 -1.52206351 -19.59513891 -1.60167312 -15.375 -1.75 C-14.2303125 -1.80542969 -13.085625 -1.86085938 -11.90625 -1.91796875 C-10.26269531 -1.98177734 -10.26269531 -1.98177734 -8.5859375 -2.046875 C-7.5861084 -2.08651367 -6.5862793 -2.12615234 -5.55615234 -2.16699219 C-3 -2 -3 -2 0 0 Z " fill="#565758" transform="translate(158,72)"/>
<path d="M0 0 C8.43259227 -0.06981514 16.86506178 -0.12296998 25.29787254 -0.15543652 C29.21447405 -0.17102661 33.13087637 -0.19214147 37.04736328 -0.22631836 C40.8340002 -0.25915161 44.62044672 -0.27690294 48.40721512 -0.28463173 C49.84476336 -0.2901326 51.28230236 -0.30087329 52.71976852 -0.31719017 C64.76027365 -0.44830497 74.91633772 0.42753949 84 9 C94.61791372 19.77179653 98.28257486 38.36618312 103 52.375 C103.66061042 54.32640261 104.32167101 56.27765287 104.9831543 58.22875977 C106.33718093 62.22342943 107.6894524 66.21868659 109.04052734 70.21435547 C111.66679056 77.97566414 114.31928843 85.72796063 116.97192383 93.48028564 C122.28290388 109.00560846 127.56457683 124.5408433 132.83865356 140.07873535 C135.87178158 149.01416869 138.90648526 157.94906707 141.94152832 166.8838501 C142.62903264 168.90786884 143.31645591 170.93191512 144.00378418 172.95599365 C146.1245005 179.20085995 148.24771719 185.44486732 150.375 191.6875 C150.65788879 192.51781738 150.94077759 193.34813477 151.23223877 194.20361328 C155.19755463 205.83223941 159.25821221 217.42423475 163.375 229 C166.95279073 239.06152559 170.42869262 249.14202438 173.6875 259.3125 C174.01476074 260.33279297 174.34202148 261.35308594 174.67919922 262.40429688 C177.57607824 271.57695691 179.5802848 279.62306362 176 289 C170.52635488 297.21046769 162.56494879 302.04338299 153 304 C150.10656441 304.43357175 147.20877906 304.72405827 144.29589844 304.99316406 C143.05021843 305.11546387 143.05021843 305.11546387 141.77937317 305.24023438 C139.05664031 305.50543736 136.33313796 305.76123372 133.609375 306.015625 C131.69898581 306.19682342 129.78860592 306.37811982 127.87823486 306.55950928 C123.88099354 306.93721007 119.88328561 307.30947618 115.88525391 307.67871094 C110.78908104 308.15040402 105.69504807 308.64204415 100.60125351 309.13867569 C96.65741868 309.51979371 92.71236388 309.88685588 88.76685333 310.25017548 C86.88951227 310.42534001 85.01263132 310.60551763 83.13628387 310.79102325 C69.24298635 312.15685132 57.15071109 313.03910683 45 305 C45 304.34 45 303.68 45 303 C44.01 302.67 43.02 302.34 42 302 C37.12654281 296.35704957 33.48454921 289.32996172 32 282 C33.64798452 278.31657379 35.55903379 276.10897929 39 274 C39.66 274 40.32 274 41 274 C42.65 278.29 44.3 282.58 46 287 C43.23582696 279.88203364 40.89271243 272.64450606 38.5625 265.375 C38.12644624 264.01983657 37.69032803 262.66469388 37.25415039 261.30957031 C33.50949787 249.65808084 29.84080402 237.98283449 26.1696167 226.30804443 C22.62209272 215.03496494 18.99843568 203.79383158 15.20483398 192.60058594 C11.9884099 183.08751405 8.96474256 173.51448234 5.93209839 163.94165039 C3.19136933 155.29206274 0.44058755 146.64566091 -2.3125 138 C-2.63604462 136.98384613 -2.95958923 135.96769226 -3.29293823 134.92074585 C-7.68029087 121.1519565 -12.15707063 107.41942368 -16.77124023 93.72509766 C-19.3601853 86.011728 -21.80039438 78.2684329 -24.08056641 70.45825195 C-25.6739172 65.00310046 -27.45779068 59.64329416 -29.43359375 54.3125 C-30.06152987 51.7487884 -29.71807591 50.48854397 -29 48 C-28.30338542 50.08984375 -27.60677083 52.1796875 -26.91015625 54.26953125 C-26.69029053 54.9290831 -26.4704248 55.58863495 -26.24389648 56.26817322 C-25.01509102 59.95440178 -23.78651777 63.64070749 -22.55834961 67.32714844 C-20.17894885 74.46835591 -17.79744437 81.60882551 -15.40625 88.74609375 C-15.00913818 89.93291748 -14.61202637 91.11974121 -14.20288086 92.3425293 C-13.46797792 94.53842746 -12.73190249 96.73393374 -11.99438477 98.92895508 C-10.31854239 103.94046459 -8.69277378 108.96076217 -7.15234375 114.015625 C-4.39439519 123.05095855 -1.43395404 132.02067429 1.5 141 C4.79775556 151.09273522 8.08772074 161.18244639 11.18164062 171.33984375 C12.23012054 174.74802907 13.35382506 178.12343057 14.5 181.5 C16.42186031 187.20073288 18.2194293 192.93167059 19.96875 198.6875 C21.45262353 203.45388165 23.05175286 208.17948816 24.65625 212.90625 C26.09156111 217.21657769 27.41032376 221.56144554 28.74169922 225.90478516 C31.23948131 234.04344961 33.76961401 242.17177061 36.32592773 250.29223633 C36.98265162 252.38591953 37.63501145 254.48097668 38.28295898 256.57739258 C44.26565321 279.58649323 44.26565321 279.58649323 59 297 C64.63551265 299.75234998 69.65295119 300.43636625 75.86694336 300.27661133 C76.69136146 300.26538396 77.51577955 300.25415659 78.36518002 300.242589 C86.98587812 300.07495895 95.54833469 299.38126916 104.12890625 298.57421875 C105.78169219 298.42401203 107.4345202 298.27426762 109.08738708 298.12495422 C112.51038998 297.8136916 115.93273702 297.4961745 119.35473633 297.17407227 C123.71390062 296.764386 128.07443221 296.37205458 132.43560886 295.98445415 C135.83284953 295.68037974 139.22913693 295.36654996 142.62522697 295.04990578 C144.23271171 294.90129381 145.84048499 294.7557656 147.44854927 294.61356163 C160.05732185 293.74543286 160.05732185 293.74543286 172 290 C173.70198927 287.62529562 173.70198927 287.62529562 174 285 C174.33 284.01 174.66 283.02 175 282 C176.49159423 268.23143789 169.36144408 253.91841253 164.75 241.25 C161.57392952 232.47922367 158.51409822 223.68199611 155.59692383 214.82202148 C153.44432428 208.2947241 151.20736428 201.79989434 148.9375 195.3125 C146.59686119 188.6196492 144.28608606 181.92017495 142.0625 175.1875 C139.61169688 167.7670364 137.06516052 160.38166155 134.5 153 C131.95663313 145.68053963 129.42980057 138.35799172 127 131 C124.61137423 123.76707353 122.12681845 116.56950378 119.625 109.375 C116.7646414 101.14054425 113.93788843 92.89686636 111.1875 84.625 C110.87256592 83.67850586 110.55763184 82.73201172 110.2331543 81.75683594 C108.68121121 77.08469441 107.13461066 72.41082572 105.59570312 67.734375 C97.03745479 32.36778554 97.03745479 32.36778554 75.8125 6 C70.81818298 3.73486094 66.74947874 2.87400813 61.25683594 2.90234375 C60.10173523 2.90564697 58.94663452 2.9089502 57.75653076 2.91235352 C56.51171936 2.92065186 55.26690796 2.9289502 53.984375 2.9375 C52.02080951 2.94328651 50.05724398 2.94906723 48.09367752 2.95451355 C43.95120187 2.96764009 39.80876458 2.98974809 35.6663208 3.01037598 C32.26161985 3.0270004 28.8569386 3.04160215 25.45220947 3.05102539 C22.90120658 3.05852072 20.35021185 3.0705296 17.79925537 3.08764648 C11.76374447 3.10471977 5.96541432 2.93850433 0 2 C0 1.34 0 0.68 0 0 Z " fill="#4F5151" transform="translate(159,70)"/>
<path d="M0 0 C3.54221927 4.01451517 2.95862754 6.94009222 2.875 12.125 C-1.41945955 13.71742297 -5.26400575 14.47699351 -9.82617188 14.81103516 C-11.14194214 14.91098785 -12.4577124 15.01094055 -13.81335449 15.11392212 C-15.24013107 15.21428109 -16.66693022 15.31431962 -18.09375 15.4140625 C-19.57625154 15.522775 -21.0587136 15.63202723 -22.5411377 15.74179077 C-25.6475371 15.9701118 -28.75425783 16.19311172 -31.86132812 16.41210938 C-35.80413886 16.6902602 -39.74602264 16.97962539 -43.68773651 17.2728672 C-46.75219868 17.4998764 -49.81701999 17.72169672 -52.88197327 17.94196701 C-54.33303009 18.04667112 -55.78399291 18.15268792 -57.23484802 18.26015091 C-61.86269921 18.60071528 -66.49042647 18.88786545 -71.125 19.125 C-72.4231665 19.19209167 -73.72133301 19.25918335 -75.05883789 19.32830811 C-76.29819092 19.36482483 -77.53754395 19.40134155 -78.81445312 19.43896484 C-79.91116333 19.47613617 -81.00787354 19.5133075 -82.13781738 19.55160522 C-85.8512107 19.02128847 -87.46319507 17.70981026 -90.125 15.125 C-91.68438978 12.00622044 -91.4857834 9.55244229 -91.125 6.125 C-87.3066315 3.06288043 -83.91998478 2.64465879 -79.12255859 2.32543945 C-78.0945816 2.25163055 -78.0945816 2.25163055 -77.0458374 2.17633057 C-74.78903959 2.01756935 -72.53150627 1.87769636 -70.2734375 1.73828125 C-68.69260675 1.63151487 -67.11184755 1.5236841 -65.53115845 1.4148407 C-62.21802312 1.18937037 -58.90448185 0.97247591 -55.59033203 0.76245117 C-51.37016057 0.49494414 -47.15112844 0.21297785 -42.93228722 -0.07467937 C-38.87966921 -0.35038975 -34.82658014 -0.61885026 -30.7734375 -0.88671875 C-30.01307568 -0.9375379 -29.25271385 -0.98835705 -28.46931076 -1.04071617 C-4.39174325 -2.63504595 -4.39174325 -2.63504595 0 0 Z " fill="#242424" transform="translate(298.125,288.875)"/>
<path d="M0 0 C-0.59425781 0.01981934 -1.18851563 0.03963867 -1.80078125 0.06005859 C-4.53424419 0.15623993 -7.26703803 0.26553557 -10 0.375 C-11.40185547 0.42140625 -11.40185547 0.42140625 -12.83203125 0.46875 C-20.77469073 0.80200844 -28.01328735 1.19470289 -34 7 C-36.979406 12.958812 -35.66596615 21.29533821 -33.73046875 27.47265625 C-32.94035929 29.79604004 -32.11064869 32.10189945 -31.27075195 34.40771484 C-29.72663233 38.68311197 -28.60961655 42.57566212 -28.125 47.125 C-26.92248856 56.66174913 -23.25385305 65.62106472 -20.13525391 74.6640625 C-17.83555416 81.42171783 -15.68773502 88.22874695 -13.51977539 95.02954102 C-11.67256295 100.81560948 -9.81020154 106.59464751 -7.89309692 112.3578949 C-6.94499478 115.20980363 -6.0044071 118.06416804 -5.06414795 120.91867065 C-4.60762078 122.29745062 -4.1474192 123.67501981 -3.68341064 125.05130005 C-3.03738033 126.96856737 -2.40510128 128.89045161 -1.7734375 130.8125 C-1.40653809 131.91207031 -1.03963867 133.01164063 -0.66162109 134.14453125 C0 137 0 137 -1 141 C-1.99 138.03 -2.98 135.06 -4 132 C-4.66 132.99 -5.32 133.98 -6 135 C-6.17015625 134.17757812 -6.3403125 133.35515625 -6.515625 132.5078125 C-8.76783719 120.32973466 -8.76783719 120.32973466 -15 110 C-14.625 107.875 -14.625 107.875 -14 106 C-14.99 105.505 -14.99 105.505 -16 105 C-15.34 104.01 -14.68 103.02 -14 102 C-13.67 102.66 -13.34 103.32 -13 104 C-13.66 103.01 -14.32 102.02 -15 101 C-15.33 101 -15.66 101 -16 101 C-16.33 102.65 -16.66 104.3 -17 106 C-19.475 106.495 -19.475 106.495 -22 107 C-24.02568631 101.70781607 -25.8823283 96.40562549 -27.56640625 90.99609375 C-27.80171555 90.24759155 -28.03702484 89.49908936 -28.27946472 88.72790527 C-29.30744934 85.45644597 -30.32960447 82.18317444 -31.35192871 78.90994263 C-34.15756639 69.93213767 -36.9820682 60.9675867 -40.01171875 52.0625 C-40.70455621 50.00382853 -41.39635285 47.94480932 -42.08810425 45.88577271 C-42.72929009 43.99845907 -43.39080934 42.11809137 -44.05297852 40.23803711 C-46.78924561 32.07786551 -49.45535252 22.60055434 -45.8269043 14.32421875 C-41.70620216 7.49454352 -35.58293583 1.60830282 -28 -1 C-23.80822264 -1.52206351 -19.59513891 -1.60167312 -15.375 -1.75 C-14.2303125 -1.80542969 -13.085625 -1.86085938 -11.90625 -1.91796875 C-10.26269531 -1.98177734 -10.26269531 -1.98177734 -8.5859375 -2.046875 C-7.5861084 -2.08651367 -6.5862793 -2.12615234 -5.55615234 -2.16699219 C-3 -2 -3 -2 0 0 Z M-8 120 C-7 122 -7 122 -7 122 Z " fill="#666767" transform="translate(158,72)"/>
<path d="M0 0 C2.52763065 2.52763065 2.99330557 4.61602094 4.06640625 8.02734375 C4.46520996 9.2817627 4.86401367 10.53618164 5.27490234 11.82861328 C5.48475769 12.49830139 5.69461304 13.1679895 5.91082764 13.85797119 C7.01590583 17.38434744 8.1402626 20.90458675 9.26171875 24.42578125 C9.48962097 25.14336609 9.71752319 25.86095093 9.95233154 26.60028076 C12.5314049 34.70584207 15.23677908 42.76809147 17.95532227 50.82788086 C19.65111976 55.87534403 21.2996226 60.92976643 22.8515625 66.0234375 C25.60699551 75.05655964 28.56693288 84.02338871 31.5 93 C34.79775556 103.09273522 38.08772074 113.18244639 41.18164062 123.33984375 C42.23012054 126.74802907 43.35382506 130.12343057 44.5 133.5 C46.42186031 139.20073288 48.2194293 144.93167059 49.96875 150.6875 C51.45262353 155.45388165 53.05175286 160.17948816 54.65625 164.90625 C56.09156111 169.21657769 57.41032376 173.56144554 58.74169922 177.90478516 C61.23948131 186.04344961 63.76961401 194.17177061 66.32592773 202.29223633 C66.98265162 204.38591953 67.63501145 206.48097668 68.28295898 208.57739258 C74.62042871 232.5759897 74.62042871 232.5759897 90.76171875 249.9765625 C96.82354878 252.69612566 103.45474989 252.71065205 110 253 C109.30072875 256.81346765 107.83200165 258.55927545 104.73046875 260.9609375 C101.86770107 262.67989056 99.30274918 262.8320636 96 263 C94.99839844 263.12761719 94.99839844 263.12761719 93.9765625 263.2578125 C86.6675449 263.86469844 81.21065366 260.53093 75 257 C75 256.34 75 255.68 75 255 C74.01 254.67 73.02 254.34 72 254 C67.12654281 248.35704957 63.48454921 241.32996172 62 234 C63.64798452 230.31657379 65.55903379 228.10897929 69 226 C69.66 226 70.32 226 71 226 C72.65 230.29 74.3 234.58 76 239 C73.23582696 231.88203364 70.89271243 224.64450606 68.5625 217.375 C68.12644624 216.01983657 67.69032803 214.66469388 67.25415039 213.30957031 C63.50949787 201.65808084 59.84080402 189.98283449 56.1696167 178.30804443 C52.62209272 167.03496494 48.99843568 155.79383158 45.20483398 144.60058594 C41.9884099 135.08751405 38.96474256 125.51448234 35.93209839 115.94165039 C33.19136933 107.29206274 30.44058755 98.64566091 27.6875 90 C27.36395538 88.98384613 27.04041077 87.96769226 26.70706177 86.92074585 C22.31970913 73.1519565 17.84292937 59.41942368 13.22875977 45.72509766 C10.38743825 37.25981059 7.7592298 28.74852825 5.25 20.1796875 C3.87349473 15.50424292 2.30493104 10.90159576 0.6640625 6.3125 C0 4 0 4 0 0 Z " fill="#353636" transform="translate(129,118)"/>
<path d="M0 0 C0 1.32 0 2.64 0 4 C-9.77967737 7.57934409 -19.71399333 8.15732653 -30.0078125 9.04296875 C-31.94416326 9.21713783 -33.88043147 9.3922268 -35.81661987 9.56819153 C-40.88247572 10.02612065 -45.94934706 10.47164175 -51.01654053 10.91448975 C-56.19920533 11.36967362 -61.38079992 11.83671918 -66.5625 12.30273438 C-76.70732703 13.21336196 -86.85326782 14.11087014 -97 15 C-97 14.34 -97 13.68 -97 13 C-95.453125 12.9071875 -95.453125 12.9071875 -93.875 12.8125 C-89.04794373 11.8003753 -87.44612929 10.44612929 -84 7 C-83.67 6.01 -83.34 5.02 -83 4 C-82.01 4.33 -81.02 4.66 -80 5 C-80.33 5.66 -80.66 6.32 -81 7 C-74.4163403 6.39935806 -67.83306691 5.79460348 -61.25 5.1875 C-60.27370636 5.09762817 -59.29741272 5.00775635 -58.29153442 4.91516113 C-45.06385711 3.69478568 -31.84884955 2.41556409 -18.65527344 0.86401367 C-12.40392007 0.15354208 -6.2912915 -0.15639172 0 0 Z " fill="#474849" transform="translate(322,367)"/>
<path d="M0 0 C0.99 0.33 1.98 0.66 3 1 C3.625 2.85546875 3.625 2.85546875 4 5.1875 C4.57377371 8.27518055 5.10307409 10.19029063 6.625 13 C8.01172017 16.02557128 8.11911165 17.22689972 8 20.4375 C7.83474936 25.08812529 8.71623992 27.93998207 11 32 C12.485 32.495 12.485 32.495 14 33 C14.02578125 33.89460938 14.0515625 34.78921875 14.078125 35.7109375 C14.45061238 43.65169127 15.63420405 49.82939124 19 57 C20.78119657 61.54205124 21.19538307 65.11542318 21 70 C18.525 70.495 18.525 70.495 16 71 C13.91959435 65.57018324 12.02677884 60.12344408 10.29296875 54.57421875 C10.04509109 53.78715042 9.79721344 53.00008209 9.54182434 52.18916321 C8.75500097 49.68924745 7.97117048 47.18840569 7.1875 44.6875 C6.4172958 42.23720424 5.64648305 39.78710517 4.8742981 37.33743286 C4.36230434 35.70540577 3.85470233 34.07199433 3.35153198 32.43722534 C2.03106222 28.16572219 0.63470598 23.94439968 -0.89990234 19.74462891 C-1.20103439 18.88948196 -1.50216644 18.03433502 -1.81242371 17.15327454 C-2.38970046 15.52015852 -2.991399 13.89540483 -3.62080383 12.28166199 C-4.37865178 10.09239501 -4.94061039 8.31771115 -5 6 C-3.64781069 3.40706579 -2.1819653 2.03003975 0 0 Z " fill="#7D7E7E" transform="translate(120,108)"/>
<path d="M0 0 C2.54673824 -0.09724897 5.09207997 -0.15844835 7.64013672 -0.20947266 C8.46505615 -0.23928223 9.28997559 -0.2690918 10.13989258 -0.29980469 C15.98724878 -0.35630088 15.98724878 -0.35630088 19.18310547 1.89208984 C21.24806168 5.02550865 20.98578242 7.43918295 20.64013672 11.10302734 C19.04079484 12.70236922 17.22493736 12.4372747 15.01123047 12.63818359 C14.05796875 12.72519531 13.10470703 12.81220703 12.12255859 12.90185547 C11.11773437 12.98886719 10.11291016 13.07587891 9.07763672 13.16552734 C8.09988281 13.25640625 7.12212891 13.34728516 6.11474609 13.44091797 C-9.06277529 14.79296776 -9.06277529 14.79296776 -13.29736328 12.54052734 C-15.96118291 9.39237687 -16.28428244 7.18439268 -16.35986328 3.10302734 C-12.37952148 -0.87731446 -5.36599424 0.23426956 0 0 Z " fill="#4445F8" transform="translate(265.35986328125,231.89697265625)"/>
<path d="M0 0 C3.08708331 3.70589056 5.73750332 7.57910265 8.25 11.6875 C8.61351562 12.26822266 8.97703125 12.84894531 9.3515625 13.44726562 C12 17.7534657 12 17.7534657 12 20 C8.37 20.33 4.74 20.66 1 21 C1.66 21.99 2.32 22.98 3 24 C3 24.99 3 25.98 3 27 C0.2598704 25.98223758 -2.02382225 24.98350767 -4.4375 23.3125 C-7.70643 21.63817 -9.51170995 22.10764673 -13 23 C-13.86949317 21.92892883 -14.72014205 20.84254056 -15.5625 19.75 C-16.03816406 19.14671875 -16.51382813 18.5434375 -17.00390625 17.921875 C-18 16 -18 16 -17.828125 13.859375 C-16.50659536 10.89216694 -13.85843114 10.34514407 -11 9 C-9.64499081 7.68870078 -8.31328657 6.35308313 -7 5 C-4.7108977 3.26206984 -2.36407999 1.63667076 0 0 Z " fill="#1823E0" transform="translate(205,122)"/>
<path d="M0 0 C-0.59425781 0.01981934 -1.18851563 0.03963867 -1.80078125 0.06005859 C-4.53424419 0.15623993 -7.26703803 0.26553557 -10 0.375 C-11.40185547 0.42140625 -11.40185547 0.42140625 -12.83203125 0.46875 C-20.77469073 0.80200844 -28.01328735 1.19470289 -34 7 C-37.03574164 13.07148328 -35.60168361 21.47727462 -33.66015625 27.75390625 C-32.86166059 30.14432876 -32.01986739 32.50955019 -31.13452148 34.86914062 C-29.69218961 38.72449758 -28.60110903 41.80333459 -29 46 C-31.25240691 43.74759309 -31.62905828 42.44801722 -32.5078125 39.4296875 C-32.77207031 38.53378906 -33.03632812 37.63789062 -33.30859375 36.71484375 C-33.57800781 35.77769531 -33.84742187 34.84054688 -34.125 33.875 C-34.40214844 32.93011719 -34.67929688 31.98523438 -34.96484375 31.01171875 C-35.6490147 28.67610068 -36.32713257 26.33889477 -37 24 C-36.67 26.31 -36.34 28.62 -36 31 C-39.75 34 -39.75 34 -42 34 C-42.33 34.99 -42.66 35.98 -43 37 C-43.66 37 -44.32 37 -45 37 C-47.62439036 29.94695091 -48.85267987 21.52271851 -45.9375 14.40625 C-41.64063528 7.58731252 -35.69131681 1.64558263 -28 -1 C-23.80822264 -1.52206351 -19.59513891 -1.60167312 -15.375 -1.75 C-14.2303125 -1.80542969 -13.085625 -1.86085938 -11.90625 -1.91796875 C-10.26269531 -1.98177734 -10.26269531 -1.98177734 -8.5859375 -2.046875 C-7.5861084 -2.08651367 -6.5862793 -2.12615234 -5.55615234 -2.16699219 C-3 -2 -3 -2 0 0 Z " fill="#4A4B4B" transform="translate(158,72)"/>
<path d="M0 0 C-0.33 0.99 -0.66 1.98 -1 3 C-11.23099223 5.20576438 -21.59787683 6.03568947 -32 7 C-34.64400869 7.24907681 -37.28788448 7.49951742 -39.93171692 7.75045776 C-41.68138469 7.91642204 -43.43113039 8.08156681 -45.18095398 8.24588013 C-52.03591947 8.8938729 -58.88268261 9.60906982 -65.72497559 10.37963867 C-71.49411786 11.01039397 -77.1956409 11.23478306 -83 11 C-82.67 10.01 -82.34 9.02 -82 8 C-78.58053143 6.86017714 -75.29459618 6.5610572 -71.73046875 6.24389648 C-70.99357819 6.17547546 -70.25668762 6.10705444 -69.49746704 6.03656006 C-67.06111777 5.81125483 -64.62433289 5.59110164 -62.1875 5.37109375 C-60.49501067 5.21585508 -58.80254678 5.06033882 -57.11010742 4.90455627 C-53.56285936 4.5787882 -50.01540617 4.25538942 -46.46777344 3.93383789 C-41.91768854 3.52137771 -37.36801272 3.1046003 -32.81846619 2.68624783 C-29.32363476 2.36509477 -25.82866713 2.04544638 -22.33364868 1.72633553 C-20.65586765 1.57311359 -18.97811279 1.41960483 -17.30038452 1.2658062 C-14.95689261 1.05136084 -12.61324164 0.8387515 -10.26953125 0.62670898 C-9.2267955 0.5308828 -9.2267955 0.5308828 -8.16299438 0.43312073 C-5.42787803 0.18730195 -2.74815738 0 0 0 Z " fill="#363737" transform="translate(324,363)"/>
<path d="M0 0 C0 1.32 0 2.64 0 4 C-8.09903922 7.03807508 -16.29351905 7.86892913 -24.84130859 8.56298828 C-27.12876729 8.7503085 -29.41374202 8.95797314 -31.69921875 9.16796875 C-33.17697941 9.29548098 -34.65484158 9.4218234 -36.1328125 9.546875 C-37.139384 9.63893219 -37.139384 9.63893219 -38.16629028 9.73284912 C-42.95709854 10.10597315 -47.27541421 9.71148251 -52 9 C-52 8.34 -52 7.68 -52 7 C-46.06 6.505 -46.06 6.505 -40 6 C-40 5.34 -40 4.68 -40 4 C-33.51905607 2.43404603 -27.19909939 1.46729343 -20.5625 0.875 C-19.68529297 0.78863281 -18.80808594 0.70226562 -17.90429688 0.61328125 C-11.92108178 0.05772848 -6.00713884 -0.10174748 0 0 Z " fill="#757576" transform="translate(322,367)"/>
<path d="M0 0 C0.99 0.33 1.98 0.66 3 1 C3.625 2.85546875 3.625 2.85546875 4 5.1875 C4.57377371 8.27518055 5.10307409 10.19029063 6.625 13 C8.2539758 16.55412902 8.05820391 18.93179006 7.91015625 22.76171875 C8.05263339 26.31125796 9.46813692 28.8137248 11 32 C11.6875 34.9375 11.6875 34.9375 12 37 C11.01 37.495 11.01 37.495 10 38 C8.68 34.7 7.36 31.4 6 28 C6.33 30.64 6.66 33.28 7 36 C6.01 35.67 5.02 35.34 4 35 C2.18238364 31.0902018 0.94593309 26.97285113 -0.34619141 22.86401367 C-0.99547539 20.82669728 -1.68965591 18.80849294 -2.38671875 16.78710938 C-5.49478768 7.29185273 -5.49478768 7.29185273 -4.1328125 3.73583984 C-2.75 2.07421875 -2.75 2.07421875 0 0 Z " fill="#777879" transform="translate(120,108)"/>
<path d="M0 0 C0.32613281 0.86882812 0.65226563 1.73765625 0.98828125 2.6328125 C1.64376953 4.36144531 1.64376953 4.36144531 2.3125 6.125 C2.74175781 7.26195312 3.17101562 8.39890625 3.61328125 9.5703125 C4.92372072 12.81134308 6.39219291 15.89754526 8 19 C4.04 20.98 4.04 20.98 0 23 C-2.7651841 18.70668784 -5.17445302 14.77450749 -7 10 C-7.66 9.34 -8.32 8.68 -9 8 C-4.67567568 0 -4.67567568 0 0 0 Z " fill="#343435" transform="translate(200,344)"/>
<path d="M0 0 C8.43259227 -0.06981514 16.86506178 -0.12296998 25.29787254 -0.15543652 C29.21447405 -0.17102661 33.13087637 -0.19214147 37.04736328 -0.22631836 C40.8340002 -0.25915161 44.62044672 -0.27690294 48.40721512 -0.28463173 C49.84476336 -0.2901326 51.28230236 -0.30087329 52.71976852 -0.31719017 C62.60212606 -0.42480387 71.99042768 -0.45393125 80 6 C79.67 6.66 79.34 7.32 79 8 C78.20335937 7.58427734 78.20335937 7.58427734 77.390625 7.16015625 C76.68421875 6.79792969 75.9778125 6.43570313 75.25 6.0625 C74.55390625 5.70285156 73.8578125 5.34320313 73.140625 4.97265625 C69.13280172 3.15158326 65.64478882 2.87970704 61.25683594 2.90234375 C60.10173523 2.90564697 58.94663452 2.9089502 57.75653076 2.91235352 C56.51171936 2.92065186 55.26690796 2.9289502 53.984375 2.9375 C52.02080951 2.94328651 50.05724398 2.94906723 48.09367752 2.95451355 C43.95120187 2.96764009 39.80876458 2.98974809 35.6663208 3.01037598 C32.26161985 3.0270004 28.8569386 3.04160215 25.45220947 3.05102539 C22.90120658 3.05852072 20.35021185 3.0705296 17.79925537 3.08764648 C11.76374447 3.10471977 5.96541432 2.93850433 0 2 C0 1.34 0 0.68 0 0 Z " fill="#414142" transform="translate(159,70)"/>
<path d="M0 0 C2.17709166 2.17709166 2.53615696 3.25132952 3.3671875 6.1484375 C3.61138428 6.98375 3.85558105 7.8190625 4.10717773 8.6796875 C4.36055908 9.56914063 4.61394043 10.45859375 4.875 11.375 C6.86466196 18.23379162 8.9509342 24.98918717 11.43359375 31.6875 C12.05923949 34.24186055 11.99924827 35.58019879 11 38 C10.01 38.495 10.01 38.495 9 39 C8.34 38.34 7.68 37.68 7 37 C7.04125 36.01 7.0825 35.02 7.125 34 C7.27883358 29.67456182 5.70996382 26.32773244 3.97265625 22.4296875 C2.98343431 19.95861905 2.44274315 17.61917529 2 15 C-0.88437779 16.29299694 -2.87219421 17.65941363 -5 20 C-5.8125 17.8125 -5.8125 17.8125 -6 15 C-3.6875 12.3125 -3.6875 12.3125 -1 10 C-0.34 9.34 0.32 8.68 1 8 C1.02375926 6.0068433 1.02375926 6.0068433 0.625 3.875 C0.41875 2.59625 0.2125 1.3175 0 0 Z " fill="#6B6C6C" transform="translate(120,94)"/>
<path d="M0 0 C-0.59425781 0.01981934 -1.18851563 0.03963867 -1.80078125 0.06005859 C-4.53424419 0.15623993 -7.26703803 0.26553557 -10 0.375 C-11.40185547 0.42140625 -11.40185547 0.42140625 -12.83203125 0.46875 C-20.77469073 0.80200844 -28.01328735 1.19470289 -34 7 C-37.03574164 13.07148328 -35.60168361 21.47727462 -33.66015625 27.75390625 C-32.86166059 30.14432876 -32.01986739 32.50955019 -31.13452148 34.86914062 C-29.69218961 38.72449758 -28.60110903 41.80333459 -29 46 C-36.10265817 38.89734183 -37.54097748 23.10024954 -38.1875 13.5 C-38.25396729 12.70601807 -38.32043457 11.91203613 -38.38891602 11.09399414 C-38.5443713 7.27311044 -38.42266481 5.46245386 -35.80078125 2.59375 C-29.00667974 -1.27234961 -23.06769624 -1.47962179 -15.375 -1.75 C-14.2303125 -1.80542969 -13.085625 -1.86085938 -11.90625 -1.91796875 C-10.26269531 -1.98177734 -10.26269531 -1.98177734 -8.5859375 -2.046875 C-7.5861084 -2.08651367 -6.5862793 -2.12615234 -5.55615234 -2.16699219 C-3 -2 -3 -2 0 0 Z " fill="#424242" transform="translate(158,72)"/>
<path d="M0 0 C4.96432365 -0.29201904 8.03701574 -0.14707573 12 3 C12.33 3.99 12.66 4.98 13 6 C11.59554165 8.2636564 9.8032087 10.0208685 8 12 C4.05362526 11.43623218 1.16803189 10.4640248 -2 8 C-2.8125 5.3125 -2.8125 5.3125 -3 3 C-2.34 3 -1.68 3 -1 3 C-0.67 2.01 -0.34 1.02 0 0 Z " fill="#565858" transform="translate(208,368)"/>
<path d="M0 0 C0.66 0.99 1.32 1.98 2 3 C1.67 3.33 1.34 3.66 1 4 C6.94 4.33 12.88 4.66 19 5 C19 5.33 19 5.66 19 6 C6.97960136 6.94014291 -4.94723146 7.11114233 -17 7 C-16.34 6.34 -15.68 5.68 -15 5 C-16.32 4.67 -17.64 4.34 -19 4 C-19 3.01 -19 2.02 -19 1 C-15.8765076 0.74572082 -12.75153179 0.52587681 -9.625 0.3125 C-8.29082031 0.20325195 -8.29082031 0.20325195 -6.9296875 0.09179688 C-6.07890625 0.03701172 -5.228125 -0.01777344 -4.3515625 -0.07421875 C-3.56604004 -0.13182373 -2.78051758 -0.18942871 -1.97119141 -0.2487793 C-0.99545166 -0.12563354 -0.99545166 -0.12563354 0 0 Z " fill="#171818" transform="translate(196,220)"/>
<path d="M0 0 C0.99 0.33 1.98 0.66 3 1 C4.1328125 3.765625 4.1328125 3.765625 5.125 7.25 C5.45757812 8.38953125 5.79015625 9.5290625 6.1328125 10.703125 C8.18846638 18.51831364 8.9571972 25.25495971 6 33 C2.63194868 37.81150189 -1.0652465 40.83430907 -6 44 C-6.66 44 -7.32 44 -8 44 C-8 43.34 -8 42.68 -8 42 C-9.32 41.34 -10.64 40.68 -12 40 C-11.0925 39.9175 -10.185 39.835 -9.25 39.75 C-5.52651612 38.89073449 -4.55009399 37.72010026 -2 35 C-1.29875 34.855625 -0.5975 34.71125 0.125 34.5625 C0.74375 34.376875 1.3625 34.19125 2 34 C3.26145768 31.63813861 3.26145768 31.63813861 4 29 C4.33 28.01 4.66 27.02 5 26 C5.98538727 16.90411747 2.97842008 8.47704177 0 0 Z " fill="#4A4B4B" transform="translate(329,326)"/>
<path d="M0 0 C2.06132142 -0.10864945 4.12431321 -0.18588321 6.1875 -0.25 C7.33605469 -0.29640625 8.48460937 -0.3428125 9.66796875 -0.390625 C13.60353399 0.07075428 15.17745787 1.29971488 18 4 C18.33 2.68 18.66 1.36 19 0 C19.99 0 20.98 0 22 0 C21.67 2.64 21.34 5.28 21 8 C18.8125 8.375 18.8125 8.375 16 8 C14.00977164 6.16038352 12.61010101 4.20813852 11 2 C10.67 2.99 10.34 3.98 10 5 C8.35 5 6.7 5 5 5 C5 5.66 5 6.32 5 7 C7.31 7 9.62 7 12 7 C12 7.66 12 8.32 12 9 C8.7 9 5.4 9 2 9 C1.34 6.03 0.68 3.06 0 0 Z " fill="#CDD8DB" transform="translate(156,160)"/>
<path d="M0 0 C2.72675159 2.40689803 4.11966596 4.92471023 5.6875 8.1875 C6.12449219 9.08855469 6.56148437 9.98960937 7.01171875 10.91796875 C7.33785156 11.60503906 7.66398438 12.29210937 8 13 C11.49705129 11.71567661 11.49705129 11.71567661 15 10 C15.33 9.01 15.66 8.02 16 7 C16.61875 7.804375 17.2375 8.60875 17.875 9.4375 C19.74164041 12.03874519 19.74164041 12.03874519 22 13 C22 13.66 22 14.32 22 15 C21.030625 15.12375 20.06125 15.2475 19.0625 15.375 C18.051875 15.58125 17.04125 15.7875 16 16 C15.67 16.66 15.34 17.32 15 18 C14.34 18 13.68 18 13 18 C13.33 19.32 13.66 20.64 14 22 C13.34 22 12.68 22 12 22 C12 21.34 12 20.68 12 20 C11.01 19.67 10.02 19.34 9 19 C4.79650929 13.93425479 0 6.82971596 0 0 Z " fill="#484849" transform="translate(192,353)"/>
<path d="M0 0 C0 1.32 0 2.64 0 4 C-4.43076923 6.09230769 -4.43076923 6.09230769 -7.3125 5.625 C-7.869375 5.41875 -8.42625 5.2125 -9 5 C-8.01 5 -7.02 5 -6 5 C-6 4.01 -6 3.02 -6 2 C-6.825 2.33 -7.65 2.66 -8.5 3 C-12.88187654 4.25196473 -17.7617491 5.11912545 -22 3 C-22 3.66 -22 4.32 -22 5 C-23.32 4.34 -24.64 3.68 -26 3 C-26 3.66 -26 4.32 -26 5 C-28.64 4.67 -31.28 4.34 -34 4 C-34 4.66 -34 5.32 -34 6 C-34.99 5.67 -35.98 5.34 -37 5 C-37.33 4.34 -37.66 3.68 -38 3 C-33.54264686 2.49100078 -29.08398826 1.99445324 -24.625 1.5 C-23.37332031 1.35691406 -22.12164062 1.21382813 -20.83203125 1.06640625 C-13.8543105 0.29922229 -7.02061586 -0.22125081 0 0 Z " fill="#6C6D6E" transform="translate(322,367)"/>
<path d="M0 0 C0.33 0 0.66 0 1 0 C1.99 0 2.98 0 4 0 C4 0.99 4 1.98 4 3 C3.45214844 2.98839844 2.90429688 2.97679687 2.33984375 2.96484375 C-4.27880623 2.88950952 -10.81418871 3.30209929 -17.4140625 3.77734375 C-21.62631426 4.03888879 -25.78180881 4.07400335 -30 4 C-30 3.01 -30 2.02 -30 1 C-20.01256445 -0.25684582 -10.04416369 -0.09131058 0 0 Z " fill="#3F4040" transform="translate(260,171)"/>
<path d="M0 0 C0 0.66 0 1.32 0 2 C3.96 2.33 7.92 2.66 12 3 C12 3.33 12 3.66 12 4 C1.44 4.99 -9.12 5.98 -20 7 C-20 6.34 -20 5.68 -20 5 C-19.34 5 -18.68 5 -18 5 C-18 4.34 -18 3.68 -18 3 C-15 2 -15 2 -12 3 C-12 2.34 -12 1.68 -12 1 C-10.35 1 -8.7 1 -7 1 C-7 1.66 -7 2.32 -7 3 C-6.5875 2.505 -6.175 2.01 -5.75 1.5 C-4 0 -4 0 0 0 Z " fill="#626363" transform="translate(266,373)"/>
<path d="M0 0 C7.38804781 -0.36334661 7.38804781 -0.36334661 10 1.1875 C11.30894168 3.55995679 11.21620175 5.3335118 11 8 C8.15916359 9.42041821 6.14522722 9.31452272 3 9 C0.5625 7.3125 0.5625 7.3125 -1 5 C-0.75 2.25 -0.75 2.25 0 0 Z " fill="#AFBABD" transform="translate(250,157)"/>
<path d="M0 0 C0.99 0 1.98 0 3 0 C3 0.99 3 1.98 3 3 C-3.80004741 7.05355624 -13.44393281 6.58150244 -21 5 C-21 4.34 -21 3.68 -21 3 C-19.68 3 -18.36 3 -17 3 C-17 2.34 -17 1.68 -17 1 C-16.01 1.33 -15.02 1.66 -14 2 C-13.67 1.67 -13.34 1.34 -13 1 C-9.89186744 0.92771785 -6.79573128 1.00385413 -3.6875 1.0625 C-1.081172 1.31133058 -1.081172 1.31133058 0 0 Z " fill="#7B7C7C" transform="translate(313,369)"/>
<path d="M0 0 C2 1 2 1 2.77783203 2.94946289 C3.01872559 3.7821167 3.25961914 4.61477051 3.5078125 5.47265625 C3.77207031 6.37177734 4.03632813 7.27089844 4.30859375 8.19726562 C4.57800781 9.14279297 4.84742188 10.08832031 5.125 11.0625 C5.40214844 12.01189453 5.67929688 12.96128906 5.96484375 13.93945312 C6.6502292 16.29103424 7.32826133 18.64449117 8 21 C6.68 21.33 5.36 21.66 4 22 C2.08460953 17.03739743 0.39038565 12.13373162 -1 7 C-0.34 7 0.32 7 1 7 C0.67 4.69 0.34 2.38 0 0 Z " fill="#8B8C8D" transform="translate(132,157)"/>
<path d="M0 0 C5.82039538 0 11.2258804 0.14457487 17 1 C17 1.99 17 2.98 17 4 C8.585 4.495 8.585 4.495 0 5 C0 3.35 0 1.7 0 0 Z " fill="#13144F" transform="translate(278,310)"/>
<path d="M0 0 C3.48539917 0.64544429 6.02819057 2.10134397 9 4 C8.67 2.68 8.34 1.36 8 0 C8.99 0 9.98 0 11 0 C12.25664978 2.90600261 13 4.79604584 13 8 C9.62537285 7.45276317 7.91765 6.9451 5 5 C5 6.32 5 7.64 5 9 C4.01 9 3.02 9 2 9 C0.50178941 5.62902617 0 3.79557881 0 0 Z " fill="#CCD3D5" transform="translate(190,159)"/>
<path d="M0 0 C0.99 0 1.98 0 3 0 C3.66 2.97 4.32 5.94 5 9 C4.01 8.67 3.02 8.34 2 8 C2 7.34 2 6.68 2 6 C0.35 6.33 -1.3 6.66 -3 7 C-3 7.66 -3 8.32 -3 9 C-3.99 9 -4.98 9 -6 9 C-6.66 6.36 -7.32 3.72 -8 1 C-7.01 1 -6.02 1 -5 1 C-5 1.66 -5 2.32 -5 3 C-3.35 3 -1.7 3 0 3 C0 2.01 0 1.02 0 0 Z " fill="#B0B6B8" transform="translate(244,157)"/>
<path d="M0 0 C1.12471572 3.37414716 0.89852952 5.52465217 0.6875 9.0625 C0.58967604 16.28642285 2.3403657 22.14133155 4.8659668 28.86938477 C6.30762252 32.72479631 7.39887784 35.80347277 7 40 C-0.69059516 32.30940484 -1.68612287 15.37487216 -2.1875 4.9921875 C-2 2 -2 2 0 0 Z " fill="#363636" transform="translate(122,78)"/>
<path d="M0 0 C1.32 0 2.64 0 4 0 C4.33 1.65 4.66 3.3 5 5 C2.0173094 6.52448631 -0.818202 7.93940067 -4 9 C-4.66 8.67 -5.32 8.34 -6 8 C-6 6.35 -6 4.7 -6 3 C-4.35 3 -2.7 3 -1 3 C-0.67 2.01 -0.34 1.02 0 0 Z " fill="#C1C4F9" transform="translate(204,130)"/>
<path d="M0 0 C-3.04202619 4.25883667 -6.4839539 7.38603243 -11 10 C-11.66 10 -12.32 10 -13 10 C-13 9.34 -13 8.68 -13 8 C-14.32 7.34 -15.64 6.68 -17 6 C-16.0925 5.9175 -15.185 5.835 -14.25 5.75 C-10.51891482 4.88898034 -9.51963508 3.77159859 -7 1 C-3.5625 -1.1875 -3.5625 -1.1875 0 0 Z " fill="#424243" transform="translate(334,360)"/>
<path d="M0 0 C7.75 -0.125 7.75 -0.125 10 1 C10 1.66 10 2.32 10 3 C7.36 2.67 4.72 2.34 2 2 C2.33 2.99 2.66 3.98 3 5 C5.64 5 8.28 5 11 5 C10.67 5.99 10.34 6.98 10 8 C8.54257537 8.08096803 7.08387193 8.13917774 5.625 8.1875 C4.81289062 8.22230469 4.00078125 8.25710937 3.1640625 8.29296875 C2.44992188 8.19628906 1.73578125 8.09960938 1 8 C-1 5 -1 5 -0.625 2.3125 C-0.41875 1.549375 -0.2125 0.78625 0 0 Z " fill="#D5DDDF" transform="translate(225,158)"/>
<path d="M0 0 C1.98 0 3.96 0 6 0 C5.25 5.75 5.25 5.75 3 8 C0.375 8.125 0.375 8.125 -2 8 C-2.33 6.35 -2.66 4.7 -3 3 C-2.34 3 -1.68 3 -1 3 C-0.67 2.01 -0.34 1.02 0 0 Z " fill="#A2A4A4" transform="translate(208,368)"/>
<path d="M0 0 C1.32 0 2.64 0 4 0 C4 0.66 4 1.32 4 2 C4.66 2.33 5.32 2.66 6 3 C-1.01558615 3.5988915 -7.95678743 4.13810221 -15 4 C-15 3.01 -15 2.02 -15 1 C-14.00097656 1.01160156 -13.00195312 1.02320313 -11.97265625 1.03515625 C-10.68230469 1.04417969 -9.39195312 1.05320313 -8.0625 1.0625 C-6.13083984 1.07990234 -6.13083984 1.07990234 -4.16015625 1.09765625 C-1.13701597 1.36532549 -1.13701597 1.36532549 0 0 Z " fill="#444444" transform="translate(222,172)"/>
<path d="M0 0 C2.97 0 5.94 0 9 0 C9 0.66 9 1.32 9 2 C7.02 2 5.04 2 3 2 C3 2.66 3 3.32 3 4 C5.31 4 7.62 4 10 4 C10 4.33 10 4.66 10 5 C8.02 5 6.04 5 4 5 C4 5.66 4 6.32 4 7 C6.31 7 8.62 7 11 7 C11 7.66 11 8.32 11 9 C8.03 9 5.06 9 2 9 C1.34 6.03 0.68 3.06 0 0 Z " fill="#D4DCDE" transform="translate(213,158)"/>
<path d="M0 0 C5.94 0 11.88 0 18 0 C18 0.33 18 0.66 18 1 C23.28 1.33 28.56 1.66 34 2 C34 2.33 34 2.66 34 3 C29.83334831 3.02926019 25.66672341 3.04688594 21.5 3.0625 C19.74042969 3.07506836 19.74042969 3.07506836 17.9453125 3.08789062 C11.86205118 3.10497844 6.01245856 2.94502752 0 2 C0 1.34 0 0.68 0 0 Z " fill="#353536" transform="translate(159,70)"/>
<path d="M0 0 C0.33 0.66 0.66 1.32 1 2 C1.66 2 2.32 2 3 2 C3.70045456 3.91197039 4.384919 5.82980435 5.0625 7.75 C5.44535156 8.81734375 5.82820312 9.8846875 6.22265625 10.984375 C6.98010011 13.92280042 7.07151741 15.22348948 6 18 C5.34 18 4.68 18 4 18 C-0.59225513 6.66287016 -0.59225513 6.66287016 0 0 Z " fill="#696A6A" transform="translate(136,148)"/>
<path d="M0 0 C2.97 0 5.94 0 9 0 C9 0.66 9 1.32 9 2 C7.02 2 5.04 2 3 2 C3 2.66 3 3.32 3 4 C5.31 4 7.62 4 10 4 C10 4.33 10 4.66 10 5 C8.02 5 6.04 5 4 5 C4 5.66 4 6.32 4 7 C6.31 7 8.62 7 11 7 C11 7.66 11 8.32 11 9 C8.03 9 5.06 9 2 9 C1.34 6.03 0.68 3.06 0 0 Z " fill="#D6DDE0" transform="translate(179,159)"/>
<path d="M0 0 C0.66 0 1.32 0 2 0 C2.98188561 2.58232914 3.96059589 5.16578683 4.9375 7.75 C5.21529297 8.47960937 5.49308594 9.20921875 5.77929688 9.9609375 C6.18051758 11.02441406 6.18051758 11.02441406 6.58984375 12.109375 C6.95903931 13.08342285 6.95903931 13.08342285 7.33569336 14.07714844 C8.01125435 16.032576 8.52800046 17.98665757 9 20 C6.27821353 17.62916021 5.11230393 15.3466216 3.8125 12 C3.46832031 11.13375 3.12414062 10.2675 2.76953125 9.375 C2 7 2 7 2 4 C-2.57748509 6.8795976 -2.57748509 6.8795976 -6 11 C-6.33 9.35 -6.66 7.7 -7 6 C-6.030625 5.38125 -5.06125 4.7625 -4.0625 4.125 C-0.97164638 2.34321154 -0.97164638 2.34321154 0 0 Z " fill="#4D4E4E" transform="translate(198,340)"/>
<path d="M0 0 C0.33 0.99 0.66 1.98 1 3 C-3.15626368 4.00926479 -7.04365094 4.10239579 -11.3125 4.0625 C-12.56675781 4.05347656 -13.82101563 4.04445313 -15.11328125 4.03515625 C-16.06589844 4.02355469 -17.01851562 4.01195312 -18 4 C-18.33 3.01 -18.66 2.02 -19 1 C-18.01 1.33 -17.02 1.66 -16 2 C-15.67 1.67 -15.34 1.34 -15 1 C-10.03441439 0.15323698 -5.03211565 -0.12902861 0 0 Z " fill="#505151" transform="translate(250,297)"/>
<path d="M0 0 C0.66 0.33 1.32 0.66 2 1 C1.67 1.99 1.34 2.98 1 4 C0.67 3.67 0.34 3.34 0 3 C0 3.33 0 3.66 0 4 C-3.83724172 4.90413673 -7.37502274 5.10576898 -11.3125 5.0625 C-12.38113281 5.05347656 -13.44976562 5.04445313 -14.55078125 5.03515625 C-15.35902344 5.02355469 -16.16726563 5.01195312 -17 5 C-17 4.01 -17 3.02 -17 2 C-15.41058594 1.90912109 -15.41058594 1.90912109 -13.7890625 1.81640625 C-12.40102779 1.73199873 -11.01300768 1.64735083 -9.625 1.5625 C-8.92632812 1.52318359 -8.22765625 1.48386719 -7.5078125 1.44335938 C-3.62639508 1.25719866 -3.62639508 1.25719866 0 0 Z " fill="#373838" transform="translate(274,310)"/>
<path d="M0 0 C1.134375 0.020625 2.26875 0.04125 3.4375 0.0625 C3.4375 0.7225 3.4375 1.3825 3.4375 2.0625 C4.0975 2.0625 4.7575 2.0625 5.4375 2.0625 C5.4375 1.4025 5.4375 0.7425 5.4375 0.0625 C8.0775 0.0625 10.7175 0.0625 13.4375 0.0625 C13.1075 1.0525 12.7775 2.0425 12.4375 3.0625 C11.7775 2.7325 11.1175 2.4025 10.4375 2.0625 C9.4475 2.5575 9.4475 2.5575 8.4375 3.0625 C7.06201844 3.14558638 5.68264204 3.16986016 4.3046875 3.16015625 C3.49902344 3.15693359 2.69335938 3.15371094 1.86328125 3.15039062 C1.02152344 3.14201172 0.17976562 3.13363281 -0.6875 3.125 C-1.53699219 3.12048828 -2.38648438 3.11597656 -3.26171875 3.11132812 C-5.36200909 3.09952874 -7.4622633 3.08159306 -9.5625 3.0625 C-9.5625 2.4025 -9.5625 1.7425 -9.5625 1.0625 C-8.3559375 1.0934375 -8.3559375 1.0934375 -7.125 1.125 C-3.7197753 1.04194574 -3.77608415 0.06624709 0 0 Z " fill="#505151" transform="translate(172.5625,173.9375)"/>
<path d="M0 0 C2 1 2 1 3.10546875 4.0546875 C3.46253906 5.31539062 3.81960937 6.57609375 4.1875 7.875 C4.55230469 9.13054687 4.91710937 10.38609375 5.29296875 11.6796875 C6 15 6 15 5 18 C2.525 17.01 2.525 17.01 0 16 C0.33 14.35 0.66 12.7 1 11 C0.34 10.67 -0.32 10.34 -1 10 C-0.34 9.01 0.32 8.02 1 7 C1.33 7.66 1.66 8.32 2 9 C1.34 8.01 0.68 7.02 0 6 C-0.66 5.34 -1.32 4.68 -2 4 C-1 1 -1 1 0 0 Z " fill="#6B6C6C" transform="translate(143,167)"/>
<path d="M0 0 C3.82097239 0.53069061 6.06171403 1.49701566 9 4 C9.33 2.68 9.66 1.36 10 0 C10.99 0 11.98 0 13 0 C12.67 2.64 12.34 5.28 12 8 C9.8125 8.375 9.8125 8.375 7 8 C5.10025032 6.15422049 3.62343022 4.10607164 2 2 C1.34 2 0.68 2 0 2 C0 1.34 0 0.68 0 0 Z " fill="#D5DCDE" transform="translate(165,160)"/>
<path d="M0 0 C5.61 0 11.22 0 17 0 C16.67 0.99 16.34 1.98 16 3 C10.72 3 5.44 3 0 3 C0 2.01 0 1.02 0 0 Z " fill="#3B3B3B" transform="translate(177,221)"/>
<path d="M0 0 C2.05078125 0.03255208 4.1015625 0.06510417 6.15234375 0.09765625 C6.15234375 0.75765625 6.15234375 1.41765625 6.15234375 2.09765625 C5.18296875 2.22140625 4.21359375 2.34515625 3.21484375 2.47265625 C2.20421875 2.67890625 1.19359375 2.88515625 0.15234375 3.09765625 C-0.17765625 3.75765625 -0.50765625 4.41765625 -0.84765625 5.09765625 C-1.50765625 5.09765625 -2.16765625 5.09765625 -2.84765625 5.09765625 C-2.51765625 6.41765625 -2.18765625 7.73765625 -1.84765625 9.09765625 C-2.50765625 9.09765625 -3.16765625 9.09765625 -3.84765625 9.09765625 C-3.84765625 8.43765625 -3.84765625 7.77765625 -3.84765625 7.09765625 C-4.83765625 6.76765625 -5.82765625 6.43765625 -6.84765625 6.09765625 C-7.17765625 5.10765625 -7.50765625 4.11765625 -7.84765625 3.09765625 C-7.04328125 2.78828125 -6.23890625 2.47890625 -5.41015625 2.16015625 C-0.22964029 0.01213744 -0.22964029 0.01213744 0 0 Z " fill="#6C6D6E" transform="translate(207.84765625,365.90234375)"/>
<path d="M0 0 C0.99 0.33 1.98 0.66 3 1 C4.73324119 0.91538508 6.46392812 0.76395645 8.1875 0.5625 C9.08855469 0.46066406 9.98960937 0.35882813 10.91796875 0.25390625 C11.60503906 0.17011719 12.29210937 0.08632813 13 0 C13.33 0.99 13.66 1.98 14 3 C4.58997722 4.14806378 4.58997722 4.14806378 0 4 C0 2.68 0 1.36 0 0 Z " fill="#595A5A" transform="translate(264,295)"/>
<path d="M0 0 C2.62576255 0.04235101 3.84003475 0.08080188 6.125 1.4375 C7.43394168 3.80995679 7.34120175 5.5835118 7.125 8.25 C6.135 7.92 5.145 7.59 4.125 7.25 C3.4375 5.1875 3.4375 5.1875 3.125 3.25 C0.70880177 2.99969023 0.70880177 2.99969023 -1.875 3.25 C-2.535 4.24 -3.195 5.23 -3.875 6.25 C-4.25718767 4.59385343 -4.58895102 2.92542976 -4.875 1.25 C-3.875 0.25 -3.875 0.25 0 0 Z " fill="#DBE1E3" transform="translate(253.875,156.75)"/>
<path d="M0 0 C1.09054687 0.02320313 2.18109375 0.04640625 3.3046875 0.0703125 C4.40039062 0.08835938 5.49609375 0.10640625 6.625 0.125 C7.46804688 0.14820313 8.31109375 0.17140625 9.1796875 0.1953125 C8.8496875 1.1853125 8.5196875 2.1753125 8.1796875 3.1953125 C3.45584787 3.84687659 -1.04005767 4.31481887 -5.8203125 4.1953125 C-4.27461051 1.10390852 -3.51101478 0.24314507 0 0 Z " fill="#7273FF" transform="translate(260.8203125,236.8046875)"/>
<path d="M0 0 C1.41377341 2.63904371 2.37240135 5.07120629 3 8 C2.01 8.495 2.01 8.495 1 9 C1 8.34 1 7.68 1 7 C-1.31 7 -3.62 7 -6 7 C-6.33 5.35 -6.66 3.7 -7 2 C-4.69 1.34 -2.38 0.68 0 0 Z " fill="#515455" transform="translate(189,159)"/>
<path d="M0 0 C0.99 0.33 1.98 0.66 3 1 C2.34 1 1.68 1 1 1 C1.66 3.31 2.32 5.62 3 8 C2.34 8 1.68 8 1 8 C1 7.34 1 6.68 1 6 C-1.64 6.33 -4.28 6.66 -7 7 C-7.33 5.68 -7.66 4.36 -8 3 C-5.36 3.33 -2.72 3.66 0 4 C0 2.68 0 1.36 0 0 Z " fill="#3C3E3F" transform="translate(235,157)"/>
<path d="M0 0 C1.65 0 3.3 0 5 0 C5 2 5 2 3.82421875 3.58203125 C1.45374949 5.42460157 -0.21495078 5.49447732 -3.1875 5.6875 C-4.08855469 5.75324219 -4.98960937 5.81898438 -5.91796875 5.88671875 C-6.60503906 5.92410156 -7.29210937 5.96148437 -8 6 C-8 5.34 -8 4.68 -8 4 C-7.34 4 -6.68 4 -6 4 C-6 3.34 -6 2.68 -6 2 C-3 1 -3 1 0 2 C0 1.34 0 0.68 0 0 Z " fill="#5B5B5C" transform="translate(254,374)"/>
<path d="M0 0 C0.99 0.33 1.98 0.66 3 1 C3.89135742 2.85766602 3.89135742 2.85766602 4.60546875 5.25390625 C4.86650391 6.10791016 5.12753906 6.96191406 5.39648438 7.84179688 C5.65751953 8.73962891 5.91855469 9.63746094 6.1875 10.5625 C6.46013672 11.46419922 6.73277344 12.36589844 7.01367188 13.29492188 C7.68680791 15.52689927 8.348329 17.76167928 9 20 C8.34 20.33 7.68 20.66 7 21 C5.82807565 17.87694627 4.66336124 14.75125261 3.5 11.625 C3.16613281 10.73554688 2.83226562 9.84609375 2.48828125 8.9296875 C2.01455078 7.65351563 2.01455078 7.65351563 1.53125 6.3515625 C1.09135742 5.17327881 1.09135742 5.17327881 0.64257812 3.97119141 C0 2 0 2 0 0 Z " fill="#444444" transform="translate(273,162)"/>
<path d="M0 0 C0 0.66 0 1.32 0 2 C0.66 2 1.32 2 2 2 C2 1.34 2 0.68 2 0 C3.65 0.33 5.3 0.66 7 1 C6.67 1.66 6.34 2.32 6 3 C3.85546875 3.44921875 3.85546875 3.44921875 1.1875 3.6875 C0.31480469 3.77386719 -0.55789062 3.86023438 -1.45703125 3.94921875 C-3.90205286 3.99804407 -5.71187821 3.84840471 -8 3 C-8.33 2.34 -8.66 1.68 -9 1 C-5.92677456 0.08941469 -3.19902639 -0.08886184 0 0 Z " fill="#515151" transform="translate(198,173)"/>
<path d="M0 0 C0.99 0.33 1.98 0.66 3 1 C2.67 2.98 2.34 4.96 2 7 C1.34 7 0.68 7 0 7 C-0.66 8.32 -1.32 9.64 -2 11 C-2.33 11 -2.66 11 -3 11 C-3.32613618 6.32538149 -2.70582788 3.83325617 0 0 Z " fill="#8C8D8E" transform="translate(115,82)"/>
<path d="M0 0 C3.3 0 6.6 0 10 0 C9.01 0.33 8.02 0.66 7 1 C7.66 3.31 8.32 5.62 9 8 C8.01 8 7.02 8 6 8 C5.7525 7.195625 5.505 6.39125 5.25 5.5625 C4.27761141 2.828919 4.27761141 2.828919 1.875 2.1875 C1.25625 2.125625 0.6375 2.06375 0 2 C0 1.34 0 0.68 0 0 Z " fill="#DEE4E6" transform="translate(202,159)"/>
<path d="M0 0 C0.99 0.33 1.98 0.66 3 1 C3.91039125 3.28697319 4.45841999 5.58315365 5.05859375 7.96875 C5.8072053 10.20825341 5.8072053 10.20825341 8.09765625 10.78125 C8.72542969 10.8534375 9.35320312 10.925625 10 11 C8.84826645 13.46800047 7.95216435 15.04783565 6 17 C5.65066406 15.94039062 5.30132812 14.88078125 4.94140625 13.7890625 C4.48185012 12.40101541 4.02221036 11.01299601 3.5625 9.625 C3.21735352 8.57699219 3.21735352 8.57699219 2.86523438 7.5078125 C1.61264601 3.68189163 1.61264601 3.68189163 0 0 Z " fill="#515252" transform="translate(134,154)"/>
<path d="M0 0 C0.99 0.33 1.98 0.66 3 1 C3.33 1.99 3.66 2.98 4 4 C0.37 4.33 -3.26 4.66 -7 5 C-7.33 3.68 -7.66 2.36 -8 1 C-6.865625 1.020625 -5.73125 1.04125 -4.5625 1.0625 C-1.18424326 1.41577477 -1.18424326 1.41577477 0 0 Z " fill="#3D3E3E" transform="translate(233,313)"/>
<path d="M0 0 C4.29 0 8.58 0 13 0 C13 0.66 13 1.32 13 2 C11.39602723 2.16852247 9.7918131 2.33474886 8.1875 2.5 C7.29417969 2.5928125 6.40085938 2.685625 5.48046875 2.78125 C3 3 3 3 0 3 C0 2.01 0 1.02 0 0 Z " fill="#515151" transform="translate(230,172)"/>
<path d="M0 0 C0.99 0 1.98 0 3 0 C3 0.99 3 1.98 3 3 C-0.14930893 4.04976964 -2.38814456 4.10131595 -5.6875 4.0625 C-6.68136719 4.05347656 -7.67523438 4.04445313 -8.69921875 4.03515625 C-9.83810547 4.01775391 -9.83810547 4.01775391 -11 4 C-8.70176341 1.70176341 -8.05119118 1.70309616 -4.9375 1.4375 C-1.23263383 1.44086552 -1.23263383 1.44086552 0 0 Z " fill="#848686" transform="translate(313,369)"/>
<path d="M0 0 C2.97 0 5.94 0 9 0 C9.33 1.32 9.66 2.64 10 4 C7.03 4 4.06 4 1 4 C0.67 2.68 0.34 1.36 0 0 Z " fill="#CCCFD0" transform="translate(156,160)"/>
<path d="M0 0 C0.66 0.33 1.32 0.66 2 1 C1.6875 4.375 1.6875 4.375 1 8 C-2 10 -2 10 -4.6875 9.625 C-5.450625 9.41875 -6.21375 9.2125 -7 9 C-6.401875 8.814375 -5.80375 8.62875 -5.1875 8.4375 C-1.90018201 6.27726247 -1.35145313 3.64892345 0 0 Z " fill="#818282" transform="translate(214,368)"/>
<path d="M0 0 C0.33 0.99 0.66 1.98 1 3 C-2.05847848 3.54372951 -4.88772805 4 -8 4 C-8.33 3.01 -8.66 2.02 -9 1 C-5.92677456 0.08941469 -3.19902639 -0.08886184 0 0 Z " fill="#565757" transform="translate(261,296)"/>
<path d="M0 0 C2.475 0.495 2.475 0.495 5 1 C5.33 2.65 5.66 4.3 6 6 C4.35 5.67 2.7 5.34 1 5 C0.67 3.35 0.34 1.7 0 0 Z " fill="#2A2D30" transform="translate(195,82)"/>
<path d="M0 0 C3.3 0 6.6 0 10 0 C10 0.99 10 1.98 10 3 C6.7 3.33 3.4 3.66 0 4 C0 2.68 0 1.36 0 0 Z " fill="#404141" transform="translate(238,313)"/>
<path d="M0 0 C-0.99 0.33 -1.98 0.66 -3 1 C-3 1.66 -3 2.32 -3 3 C-5.64 2.67 -8.28 2.34 -11 2 C-11 2.66 -11 3.32 -11 4 C-11.99 3.67 -12.98 3.34 -14 3 C-14.33 2.34 -14.66 1.68 -15 1 C-9.91913204 0.15318867 -5.15171623 -0.09038099 0 0 Z " fill="#626364" transform="translate(299,369)"/>
<path d="M0 0 C0.99 0.33 1.98 0.66 3 1 C3.765625 2.92578125 3.765625 2.92578125 4.25 5.3125 C4.50523437 6.48232422 4.50523437 6.48232422 4.765625 7.67578125 C5.00771617 10.07651867 4.7310448 11.71809588 4 14 C2.13459373 9.29593201 0.63156995 5.05255964 0 0 Z " fill="#767677" transform="translate(132,165)"/>
<path d="M0 0 C0.99 0 1.98 0 3 0 C3 0.99 3 1.98 3 3 C4.98 3 6.96 3 9 3 C9 3.33 9 3.66 9 4 C7.35 4 5.7 4 4 4 C4.33 5.32 4.66 6.64 5 8 C4.01 8 3.02 8 2 8 C1.34 5.36 0.68 2.72 0 0 Z " fill="#DAE2E5" transform="translate(236,158)"/>
<path d="M0 0 C1.00109515 3.31070838 1.10356134 6.30084769 1.0625 9.75 C1.05347656 10.73484375 1.04445313 11.7196875 1.03515625 12.734375 C1.02355469 13.48203125 1.01195313 14.2296875 1 15 C-0.51953125 13.203125 -0.51953125 13.203125 -2 11 C-1.6875 7.75 -1.6875 7.75 -1 5 C-1.66 5 -2.32 5 -3 5 C-1.125 1.125 -1.125 1.125 0 0 Z " fill="#616162" transform="translate(119,78)"/>
<path d="M0 0 C1.0725 0.2475 2.145 0.495 3.25 0.75 C2.26 1.245 2.26 1.245 1.25 1.75 C1.25 2.41 1.25 3.07 1.25 3.75 C-1.72 3.75 -4.69 3.75 -7.75 3.75 C-5.15187156 0.32047046 -4.43092205 -0.2953948 0 0 Z " fill="#525253" transform="translate(244.75,376.25)"/>
<path d="M0 0 C0.33 1.32 0.66 2.64 1 4 C0.21625 4.598125 -0.5675 5.19625 -1.375 5.8125 C-4.14574323 7.91085249 -4.14574323 7.91085249 -6 11 C-6.33 9.35 -6.66 7.7 -7 6 C-6.030625 5.38125 -5.06125 4.7625 -4.0625 4.125 C-0.97164638 2.34321154 -0.97164638 2.34321154 0 0 Z " fill="#424343" transform="translate(198,340)"/>
<path d="M0 0 C2.97 0 5.94 0 9 0 C8.67 0.99 8.34 1.98 8 3 C5.36 3 2.72 3 0 3 C0 2.01 0 1.02 0 0 Z " fill="#4D4D4D" transform="translate(207,173)"/>
<path d="M0 0 C0.33 0 0.66 0 1 0 C1.99 0 2.98 0 4 0 C4 0.99 4 1.98 4 3 C0.37 3 -3.26 3 -7 3 C-7 2.34 -7 1.68 -7 1 C-4.52930595 -0.23534702 -2.73258157 -0.07006619 0 0 Z " fill="#565757" transform="translate(260,171)"/>
<path d="M0 0 C0.66 1.32 1.32 2.64 2 4 C1 5 1 5 -2.5625 5.0625 C-3.696875 5.041875 -4.83125 5.02125 -6 5 C-6.33 3.68 -6.66 2.36 -7 1 C-3.535 0.505 -3.535 0.505 0 0 Z " fill="#575B5C" transform="translate(223,160)"/>
<path d="M0 0 C-0.33 0.99 -0.66 1.98 -1 3 C-4.3 2.67 -7.6 2.34 -11 2 C-11 1.34 -11 0.68 -11 0 C-9.54263913 -0.19491452 -8.08405407 -0.38069358 -6.625 -0.5625 C-5.81289063 -0.66691406 -5.00078125 -0.77132813 -4.1640625 -0.87890625 C-2 -1 -2 -1 0 0 Z " fill="#6F7071" transform="translate(281,374)"/>
<path d="M0 0 C0.99 0 1.98 0 3 0 C4.25664978 2.90600261 5 4.79604584 5 8 C3.68 8 2.36 8 1 8 C0.67 5.36 0.34 2.72 0 0 Z " fill="#D6DEE0" transform="translate(198,159)"/>
<path d="M0 0 C0.66 0.33 1.32 0.66 2 1 C0.625 3.4375 0.625 3.4375 -2 6 C-5.32585166 6.74023658 -8.59914435 6.92860799 -12 7 C-12 6.34 -12 5.68 -12 5 C-10.948125 4.9175 -9.89625 4.835 -8.8125 4.75 C-4.72952791 3.94679238 -2.9877273 2.80665291 0 0 Z " fill="#5C5D5D" transform="translate(237,375)"/>
<path d="M0 0 C1.65 0 3.3 0 5 0 C5.33 1.32 5.66 2.64 6 4 C4.02 4 2.04 4 0 4 C0 2.68 0 1.36 0 0 Z " fill="#444748" transform="translate(252,159)"/>
<path d="M0 0 C4.00410788 1.33470263 4.70666202 3.55999303 7 7 C6.125 9.6875 6.125 9.6875 5 12 C2.91620491 8.15299368 1.50313376 4.09945571 0 0 Z " fill="#515252" transform="translate(127,132)"/>
<path d="M0 0 C0.33 0.99 0.66 1.98 1 3 C-2.96 3 -6.92 3 -11 3 C-11.33 2.34 -11.66 1.68 -12 1 C-7.93631321 0.22596442 -4.13574827 -0.0984702 0 0 Z " fill="#656666" transform="translate(250,297)"/>
<path d="M0 0 C0.66 0.99 1.32 1.98 2 3 C-1.66305234 3.74926071 -4.42355152 4.2380014 -8 3 C-8 2.34 -8 1.68 -8 1 C-5.36 0.67 -2.72 0.34 0 0 Z " fill="#373838" transform="translate(179,194)"/>
<path d="M0 0 C1.55080743 2.32621115 2.79077344 4.50093178 4 7 C4.33 7.66 4.66 8.32 5 9 C4.01 10.485 4.01 10.485 3 12 C0.52075165 8.28112748 -0.08484002 5.36460914 -1 1 C-0.67 0.67 -0.34 0.34 0 0 Z " fill="#5C5D5E" transform="translate(122,105)"/>
<path d="M0 0 C-0.33 0.99 -0.66 1.98 -1 3 C-1.33 2.67 -1.66 2.34 -2 2 C-2 2.33 -2 2.66 -2 3 C-4.875 3.625 -4.875 3.625 -8 4 C-8.66 3.34 -9.32 2.68 -10 2 C-8.71211992 1.46987262 -7.41953322 0.9511671 -6.125 0.4375 C-5.40570313 0.14746094 -4.68640625 -0.14257812 -3.9453125 -0.44140625 C-2 -1 -2 -1 0 0 Z " fill="#424242" transform="translate(276,311)"/>
<path d="M0 0 C0.99 0 1.98 0 3 0 C2.67 1.32 2.34 2.64 2 4 C0.68 4.33 -0.64 4.66 -2 5 C-2.33 4.01 -2.66 3.02 -3 2 C-2.01 2 -1.02 2 0 2 C0 1.34 0 0.68 0 0 Z " fill="#BFBFC0" transform="translate(209,370)"/>
<path d="M0 0 C3.3 0 6.6 0 10 0 C10 1.32 10 2.64 10 4 C8.35 4.33 6.7 4.66 5 5 C5.66 4.01 6.32 3.02 7 2 C4.69 1.67 2.38 1.34 0 1 C0 0.67 0 0.34 0 0 Z " fill="#5E5F5F" transform="translate(312,367)"/>
<path d="M0 0 C1.32 0 2.64 0 4 0 C2.63016497 3.16115776 2.0109362 3.9927092 -1 6 C-1 2 -1 2 0 0 Z " fill="#727374" transform="translate(116,106)"/>
<path d="M0 0 C1.06671952 3.20015856 0.94845472 4.88544294 0.5625 8.1875 C0.46066406 9.08855469 0.35882813 9.98960938 0.25390625 10.91796875 C0.17011719 11.60503906 0.08632812 12.29210937 0 13 C-0.33 13 -0.66 13 -1 13 C-1.22151549 11.20991533 -1.42682213 9.41781838 -1.625 7.625 C-1.74101563 6.62726563 -1.85703125 5.62953125 -1.9765625 4.6015625 C-1.98429687 3.74304688 -1.99203125 2.88453125 -2 2 C-1.34 1.34 -0.68 0.68 0 0 Z " fill="#272727" transform="translate(122,78)"/>
<path d="M0 0 C1.32 0.66 2.64 1.32 4 2 C2.625 3.5 2.625 3.5 1 5 C0.34 5 -0.32 5 -1 5 C-1 5.66 -1 6.32 -1 7 C-1.66 7 -2.32 7 -3 7 C-2.690625 6.401875 -2.38125 5.80375 -2.0625 5.1875 C-0.89790296 2.91043228 -0.89790296 2.91043228 0 0 Z " fill="#454546" transform="translate(238,374)"/>
<path d="M0 0 C1.32 0 2.64 0 4 0 C3.67 1.65 3.34 3.3 3 5 C1.68 4.67 0.36 4.34 -1 4 C-0.67 2.68 -0.34 1.36 0 0 Z " fill="#306B7A" transform="translate(215,299)"/>
<path d="M0 0 C2.625 0.375 2.625 0.375 5 1 C5 1.66 5 2.32 5 3 C2.625 3.625 2.625 3.625 0 4 C-0.66 3.34 -1.32 2.68 -2 2 C-1.34 1.34 -0.68 0.68 0 0 Z " fill="#686868" transform="translate(273,295)"/>
<path d="M0 0 C0 1.32 0 2.64 0 4 C-4 4 -4 4 -5.75 2.5 C-6.1625 2.005 -6.575 1.51 -7 1 C-4.50935112 0.31292445 -2.62113708 0 0 0 Z " fill="#424242" transform="translate(196,173)"/>
<path d="M0 0 C0.99 0.33 1.98 0.66 3 1 C4.1875 4.5625 4.1875 4.5625 5 8 C4.01 8.495 4.01 8.495 3 9 C2.01 6.03 1.02 3.06 0 0 Z " fill="#3F3F40" transform="translate(288,206)"/>
</svg>
